HIERARCHY
ROOT root
{
	OFFSET	0	13.1	24.9
	CHANNELS 6  Xposition Yposition Zposition Xrotation Yrotation Zrotation
	JOINT spine_1
	{
		OFFSET	0	9.99999	0
		CHANNELS 3  Xrotation Yrotation Zrotation
		JOINT spine_2
		{
			OFFSET	0	112	-10
			CHANNELS 3  Xrotation Yrotation Zrotation
			JOINT spine_3
			{
				OFFSET	0	206.5	19.3
				CHANNELS 3  Xrotation Yrotation Zrotation
				JOINT spine_4
				{
					OFFSET	0	110.4	14.6
					CHANNELS 3  Xrotation Yrotation Zrotation
					JOINT neck_1
					{
						OFFSET	0	71.8	-50.3
						CHANNELS 3  Xrotation Yrotation Zrotation
						JOINT neck_2
						{
							OFFSET	0	86.2	-25.8
							CHANNELS 3  Xrotation Yrotation Zrotation
							JOINT head_ee
							{
								OFFSET	0	179.8	-8.7
								CHANNELS 3  Xrotation Yrotation Zrotation
								End Site
								{
									OFFSET	1	0	0
								}
							}
						}
					}
					JOINT left_clavicle
					{
						OFFSET	-43.2	22.4	-70.8
						CHANNELS 3  Xrotation Yrotation Zrotation
						JOINT left_shoulder
						{
							OFFSET	-93.9	-5.79999	48.7
							CHANNELS 3  Xrotation Yrotation Zrotation
							JOINT left_elbow
							{
								OFFSET	-291.4	-30.8	15.2
								CHANNELS 3  Xrotation Yrotation Zrotation
								JOINT left_lowarm_twist
								{
									OFFSET	-110.7	-3.89999	13.6
									CHANNELS 3  Xrotation Yrotation Zrotation
									JOINT left_hand
									{
										OFFSET	-110.7	-3.89999	13.6
										CHANNELS 3  Xrotation Yrotation Zrotation
										JOINT left_ee
										{
											OFFSET	-80.8	-5.10001	12.1
											CHANNELS 3  Xrotation Yrotation Zrotation
											End Site
											{
												OFFSET	1	0	0
											}
										}
									}
								}
							}
						}
					}
					JOINT right_clavicle
					{
						OFFSET	43.2	22.4	-70.8
						CHANNELS 3  Xrotation Yrotation Zrotation
						JOINT right_shoulder
						{
							OFFSET	93.9	-5.79999	48.7
							CHANNELS 3  Xrotation Yrotation Zrotation
							JOINT right_elbow
							{
								OFFSET	291.4	-30.8	15.2
								CHANNELS 3  Xrotation Yrotation Zrotation
								JOINT right_lowarm_twist
								{
									OFFSET	110.7	-3.89999	13.6
									CHANNELS 3  Xrotation Yrotation Zrotation
									JOINT right_hand
									{
										OFFSET	110.7	-3.89999	13.6
										CHANNELS 3  Xrotation Yrotation Zrotation
										JOINT right_ee
										{
											OFFSET	80.8	-5.10001	12.1
											CHANNELS 3  Xrotation Yrotation Zrotation
											End Site
											{
												OFFSET	1	0	0
											}
										}
									}
								}
							}
						}
					}
				}
			}
		}
	}
	JOINT left_hip
	{
		OFFSET	-82.8	-127.5	0.300001
		CHANNELS 3  Xrotation Yrotation Zrotation
		JOINT left_knee
		{
			OFFSET	-28.2	-396.7	2.2
			CHANNELS 3  Xrotation Yrotation Zrotation
			JOINT left_ankle
			{
				OFFSET	-11.7	-411.3	35.4
				CHANNELS 3  Xrotation Yrotation Zrotation
				JOINT left_toes
				{
					OFFSET	0	-60	-88.6
					CHANNELS 3  Xrotation Yrotation Zrotation
					JOINT left_foot_ee
					{
						OFFSET	-22.5	-16.5	-42.2
						CHANNELS 3  Xrotation Yrotation Zrotation
						End Site
						{
							OFFSET	1	0	0
						}
					}
				}
			}
		}
	}
	JOINT right_hip
	{
		OFFSET	82.8	-127.5	0.300001
		CHANNELS 3  Xrotation Yrotation Zrotation
		JOINT right_knee
		{
			OFFSET	28.2	-396.7	2.2
			CHANNELS 3  Xrotation Yrotation Zrotation
			JOINT right_ankle
			{
				OFFSET	11.7	-411.3	35.4
				CHANNELS 3  Xrotation Yrotation Zrotation
				JOINT right_toes
				{
					OFFSET	0	-60	-88.6
					CHANNELS 3  Xrotation Yrotation Zrotation
					JOINT right_foot_ee
					{
						OFFSET	22.5	-16.5	-42.2
						CHANNELS 3  Xrotation Yrotation Zrotation
						End Site
						{
							OFFSET	1	0	0
						}
					}
				}
			}
		}
	}
}
MOTION
Frames: 13
Frame Time: 0.02
2837.41485047 693.698 -1616.42368453 -9.99861480047 55.6738853578 7.74147651172 2.70815 0.312478 0.350314 2.70817 0.289553 0.369488 2.71005 0.225162 0.411903 2.70993 0.287388 0.371174 -6.65251 21.9944 6.37957 -6.53015 36.3867 10.7682 -0.0 0.0 -0.0 7.09644 13.9497 13.3461 -7.7514 -0.171127 58.003 2.52471 -51.3468 1.21377 -70.5285 -6.61349 5.30669 2.96036 19.8678 26.737 -0.0 0.0 -0.0 10.6219 4.38636 -21.139 -17.2278 25.6575 -67.607 0.149866 4.24591 -0.00555549 -49.5983 4.02479 -4.66173 -8.37884 -29.6329 36.1166 0.0 0.0 0.0 8.93195 23.3983 2.40536 -17.1149 0.318828 2.59734 36.1326 17.2291 -4.6035 -37.2368 0.0 0.0 -0.0 0.0 -0.0 29.9246 23.3542 -2.3996 -53.0668 1.49962 -7.71877 -23.044 -18.3573 -3.51648 32.668 -0.0 -0.0 0.0 0.0 0.0 
2830.09461734 694.605 -1601.53506018 -11.4541484715 57.3676022779 9.41374268518 2.67959 0.35608 0.21656 2.67955 0.341578 0.238779 2.68099 0.297733 0.291626 2.68104 0.340054 0.240945 -5.6472 22.4204 5.53275 -5.38561 37.5105 9.68235 -0.0 0.0 -0.0 7.13829 13.4409 13.448 -6.04647 -2.28755 56.9282 2.79425 -54.1439 1.42837 -70.6983 -6.63517 5.30798 2.66486 19.419 24.6261 -0.0 0.0 -0.0 10.5502 4.23823 -20.9809 -17.3381 21.2647 -67.2488 0.145664 4.12729 -0.00524874 -47.8939 3.82704 -4.56824 -8.46412 -29.843 36.4642 0.0 0.0 0.0 7.8806 24.0664 3.338 -15.0385 0.321732 2.27879 35.0436 13.8104 -4.44829 -39.3114 0.0 0.0 -0.0 0.0 -0.0 30.1424 20.9968 -1.73259 -48.3793 1.08396 -7.12871 -22.7916 -15.2648 -3.45109 35.1341 -0.0 -0.0 0.0 0.0 0.0 
2823.06968839 691.16 -1585.99132105 -14.9188179223 60.8325451989 13.2093611954 2.74769 0.15699 0.0597119 2.74768 0.152872 0.0695806 2.74787 0.13948 0.0935771 2.74789 0.152508 0.0703744 -4.87255 22.7576 5.47792 -4.47829 37.9535 9.42295 -0.0 0.0 -0.0 7.26219 15.1467 13.5469 -3.74658 -5.87593 56.2059 3.09198 -56.8483 1.6738 -69.6554 -6.50206 5.29903 2.10947 20.3328 21.2271 -0.0 0.0 -0.0 10.6532 4.05759 -21.1961 -19.5742 19.3482 -65.5329 0.16711 4.73235 -0.00690513 -46.872 3.70983 -4.50938 -8.64723 -30.249 37.2631 0.0 0.0 0.0 3.27029 22.7441 5.44336 -0.470487 0.0190869 0.0696784 28.5966 13.4397 -3.76532 -40.2698 0.0 0.0 -0.0 0.0 -0.0 34.7863 18.0903 -3.62266 -44.8919 0.806949 -6.6691 -22.15 -14.3796 -3.3481 37.8315 -0.0 -0.0 0.0 0.0 0.0 
2823.43670368 691.16 -1584.44693568 -15.0352094829 61.0741754146 13.3424977673 2.74769 0.15699 0.0597119 2.74768 0.152872 0.0695806 2.74787 0.13948 0.0935771 2.74789 0.152508 0.0703744 -4.87255 22.7576 5.47792 -4.47829 37.9535 9.42295 -0.0 0.0 -0.0 7.26219 15.1467 13.5469 -3.74658 -5.87593 56.2059 3.09198 -56.8483 1.6738 -69.6554 -6.50206 5.29903 2.10947 20.3328 21.2271 -0.0 0.0 -0.0 10.6532 4.05759 -21.1961 -19.5742 19.3482 -65.5329 0.16711 4.73235 -0.00690513 -46.872 3.70983 -4.50938 -8.64723 -30.249 37.2631 0.0 0.0 0.0 3.27029 22.7441 5.44336 -0.470487 0.0190869 0.0696784 28.5966 13.4397 -3.76532 -40.2698 0.0 0.0 -0.0 0.0 -0.0 34.7863 18.0903 -3.62266 -44.8919 0.806949 -6.6691 -22.15 -14.3796 -3.3481 37.8315 -0.0 -0.0 0.0 0.0 0.0 
2792.08933892 693.744 -1553.39346356 -16.500345987 64.3571081006 15.1217092953 2.17296 0.111797 -0.0234512 2.17295 0.113063 -0.0162897 2.17292 0.114176 0.00351079 2.17294 0.113298 -0.0145653 -5.6626 22.6986 5.18375 -5.40291 38.2927 9.39392 -0.0 0.0 -0.0 8.05074 11.3545 15.1784 -0.376527 -9.40305 52.9046 3.39283 -59.2339 1.92911 -68.4427 -6.34745 5.28556 1.01561 15.1517 12.5861 -0.0 0.0 -0.0 11.0915 5.69904 -22.1926 -19.6084 10.9837 -63.7073 0.142198 4.02939 -0.00500222 -43.4902 3.32976 -4.29991 -8.31686 -29.9911 35.2503 0.0 0.0 0.0 -0.765109 24.1516 7.10478 7.7472 -0.395598 -1.12158 13.3274 2.39752 -1.87945 -39.7136 0.0 0.0 -0.0 0.0 -0.0 40.6159 14.1036 -6.03997 -31.5526 0.0185255 -4.78147 -13.1245 -4.20917 -1.97001 30.8232 -0.0 -0.0 0.0 0.0 0.0 
2792.17582244 693.744 -1553.1066105 -16.5256531042 64.3980488862 15.1497764392 2.17296 0.111797 -0.0234512 2.17295 0.113063 -0.0162897 2.17292 0.114176 0.00351079 2.17294 0.113298 -0.0145653 -5.6626 22.6986 5.18375 -5.40291 38.2927 9.39392 -0.0 0.0 -0.0 8.05074 11.3545 15.1784 -0.376527 -9.40305 52.9046 3.39283 -59.2339 1.92911 -68.4427 -6.34745 5.28556 1.01561 15.1517 12.5861 -0.0 0.0 -0.0 11.0915 5.69904 -22.1926 -19.6084 10.9837 -63.7073 0.142198 4.02939 -0.00500222 -43.4902 3.32976 -4.29991 -8.31686 -29.9911 35.2503 0.0 0.0 0.0 -0.765109 24.1516 7.10478 7.7472 -0.395598 -1.12158 13.3274 2.39752 -1.87945 -39.7136 0.0 0.0 -0.0 0.0 -0.0 40.6159 14.1036 -6.03997 -31.5526 0.0185255 -4.78147 -13.1245 -4.20917 -1.97001 30.8232 -0.0 -0.0 0.0 0.0 0.0 
2774.52727205 691.209 -1548.87026721 -15.5044532467 63.9358671488 14.474193125 1.97428 0.129447 -0.175645 1.97428 0.140361 -0.167052 1.97387 0.167626 -0.139676 1.97387 0.143463 -0.164396 -4.94732 23.5512 6.01824 -4.52861 39.0617 10.1208 -0.0 0.0 -0.0 8.19926 13.3975 15.2783 0.472709 -11.7585 52.6216 3.46966 -59.7941 1.99532 -67.2953 -6.20144 5.26979 0.635913 15.1784 10.1916 -0.0 0.0 -0.0 11.2406 6.40114 -22.5361 -21.0136 9.05419 -62.8192 0.187466 5.30569 -0.00868604 -45.3165 3.53348 -4.41582 -8.57043 -30.1567 36.8306 0.0 0.0 0.0 -2.20058 27.648 8.27853 2.33154 -0.10301 -0.342911 26.7558 2.09362 -3.54184 -39.608 0.0 0.0 -0.0 0.0 -0.0 38.4171 12.8433 -6.43832 -20.8112 -0.285113 -3.16339 -16.7518 -0.133356 -2.54288 28.4774 -0.0 -0.0 0.0 0.0 0.0 
2752.10688166 689.092 -1545.83067891 -14.4279799102 62.6146704102 12.6964158437 1.86529 0.276061 -0.0226767 1.86525 0.276945 -0.00506413 1.86522 0.273413 0.0443804 1.86533 0.27699 0.000642681 -3.59521 21.9049 5.64834 -3.05861 35.8448 9.06239 -0.0 0.0 -0.0 8.40536 14.648 15.5192 1.1683 -12.1844 52.7903 3.63744 -60.9551 2.14117 -67.9553 -6.2854 5.27922 0.962377 13.585 11.6864 -0.0 0.0 -0.0 11.3914 6.38397 -22.8673 -21.9137 7.84357 -61.7447 0.181522 5.13837 -0.00814499 -42.1457 3.1822 -4.21047 -8.09831 -30.0081 33.7309 0.0 0.0 0.0 -4.16364 25.8241 9.8982 -0.528973 0.0214195 0.0783507 30.4194 1.48793 -3.94539 -39.1794 0.0 0.0 -0.0 0.0 -0.0 38.5217 13.0005 -6.64631 -17.2584 -0.318201 -2.61935 -18.2228 2.1634 -2.78762 28.4984 -0.0 -0.0 0.0 0.0 0.0 
2733.54872666 687.018 -1544.68180394 -12.8865301563 62.712701495 11.3294658966 1.77316 0.344845 -0.149028 1.7731 0.353629 -0.126782 1.77231 0.370664 -0.0611167 1.77248 0.35636 -0.11889 -4.89646 21.4806 5.31977 -4.55404 35.6906 9.06002 -0.0 0.0 -0.0 8.17872 15.4994 15.0532 1.2224 -14.257 53.2894 3.75042 -61.6919 2.2403 -67.7556 -6.25998 5.27647 0.931721 11.6316 10.7742 -0.0 0.0 -0.0 11.3577 6.69093 -22.8 -23.0606 6.65554 -62.1593 0.199871 5.65457 -0.00987068 -41.0728 3.06597 -4.13664 -7.88455 -29.5739 32.7815 0.0 0.0 0.0 -4.6775 24.958 9.47075 -5.73765 0.193353 0.858965 33.5283 0.237535 -4.27291 -39.2493 0.0 0.0 -0.0 0.0 -0.0 36.3778 11.7627 -6.79524 -8.05154 -0.246817 -1.21001 -22.1606 5.7145 -3.44104 27.9083 -0.0 -0.0 0.0 0.0 0.0 
2724.61182313 682.556 -1552.15608348 -13.8127398942 63.1310852713 12.9711882848 1.76916 0.13217 -0.161672 1.76916 0.14219 -0.152934 1.76878 0.167383 -0.124859 1.76878 0.145564 -0.149727 -5.08935 21.3739 5.59229 -4.77352 35.344 9.37435 -0.0 0.0 -0.0 7.66106 15.7418 14.1661 2.01536 -15.2417 53.2124 3.79307 -61.9612 2.27789 -66.5187 -6.10278 5.25745 1.14763 12.3145 12.4226 -0.0 0.0 -0.0 11.6477 6.30721 -23.4306 -22.316 6.12304 -62.187 0.185288 5.24441 -0.00848582 -40.1633 2.96855 -4.07236 -7.78594 -29.7907 31.8853 0.0 0.0 0.0 -4.22996 21.3421 8.30819 -6.32251 0.208205 0.947491 36.9599 1.63573 -4.5943 -40.2232 0.0 0.0 -0.0 0.0 -0.0 34.8033 11.3523 -8.2213 2.20455 0.0970403 0.324342 -21.9206 12.4498 -3.5345 25.4583 -0.0 -0.0 0.0 0.0 0.0 
2723.55779038 682.556 -1556.3053225 -13.5702140205 62.6211281851 12.6986970759 1.76916 0.13217 -0.161672 1.76916 0.14219 -0.152934 1.76878 0.167383 -0.124859 1.76878 0.145564 -0.149727 -5.08935 21.3739 5.59229 -4.77352 35.344 9.37435 -0.0 0.0 -0.0 7.66106 15.7418 14.1661 2.01536 -15.2417 53.2124 3.79307 -61.9612 2.27789 -66.5187 -6.10278 5.25745 1.14763 12.3145 12.4226 -0.0 0.0 -0.0 11.6477 6.30721 -23.4306 -22.316 6.12304 -62.187 0.185288 5.24441 -0.00848582 -40.1633 2.96855 -4.07236 -7.78594 -29.7907 31.8853 0.0 0.0 0.0 -4.22996 21.3421 8.30819 -6.32251 0.208205 0.947491 36.9599 1.63573 -4.5943 -40.2232 0.0 0.0 -0.0 0.0 -0.0 34.8033 11.3523 -8.2213 2.20455 0.0970403 0.324342 -21.9206 12.4498 -3.5345 25.4583 -0.0 -0.0 0.0 0.0 0.0 
2701.66853864 677.121 -1557.02546293 -11.7425588954 62.3454965788 10.0567656124 1.50753 0.246994 -0.107469 1.5075 0.253332 -0.0915343 1.50708 0.265867 -0.0432519 1.50717 0.255699 -0.084698 -5.21467 20.8137 5.47688 -4.93288 34.4178 9.19973 -0.0 0.0 -0.0 7.91608 16.2908 14.5411 2.3122 -16.1184 53.5791 3.82157 -62.1385 2.30306 -67.0629 -6.17189 5.26624 1.0462 11.9011 11.6148 -0.0 0.0 -0.0 11.5059 6.66031 -23.1263 -22.9673 5.2011 -61.724 0.216495 6.12145 -0.0115761 -39.4536 2.89324 -4.02114 -7.58153 -29.7784 30.5604 0.0 0.0 0.0 -5.62846 24.6999 9.20964 -11.5468 0.300592 1.74356 39.5572 -1.93105 -4.85466 -39.5074 0.0 0.0 -0.0 0.0 -0.0 34.3537 11.4866 -7.47222 6.97693 0.349499 1.01253 -22.2933 12.092 -3.58602 25.4851 -0.0 -0.0 0.0 0.0 0.0 
2700.21979431 677.121 -1563.3470816 -11.4551978993 61.6002335419 9.73123422066 1.50753 0.246994 -0.107469 1.5075 0.253332 -0.0915343 1.50708 0.265867 -0.0432519 1.50717 0.255699 -0.084698 -5.21467 20.8137 5.47688 -4.93288 34.4178 9.19973 -0.0 0.0 -0.0 7.91608 16.2908 14.5411 2.3122 -16.1184 53.5791 3.82157 -62.1385 2.30306 -67.0629 -6.17189 5.26624 1.0462 11.9011 11.6148 -0.0 0.0 -0.0 11.5059 6.66031 -23.1263 -22.9673 5.2011 -61.724 0.216495 6.12145 -0.0115761 -39.4536 2.89324 -4.02114 -7.58153 -29.7784 30.5604 0.0 0.0 0.0 -5.62846 24.6999 9.20964 -11.5468 0.300592 1.74356 39.5572 -1.93105 -4.85466 -39.5074 0.0 0.0 -0.0 0.0 -0.0 34.3537 11.4866 -7.47222 6.97693 0.349499 1.01253 -22.2933 12.092 -3.58602 25.4851 -0.0 -0.0 0.0 0.0 0.0 
